<?xml version="1.0" encoding="utf-8"?>
<!-- Generator: Adobe Illustrator 24.0.1, SVG Export Plug-In . SVG Version: 6.00 Build 0)  -->
<svg version="1.1" id="Layer_1" xmlns="http://www.w3.org/2000/svg" xmlns:xlink="http://www.w3.org/1999/xlink" x="0px" y="0px"
	 viewBox="0 0 563.35 630.87" style="enable-background:new 0 0 563.35 630.87;" xml:space="preserve">
<style type="text/css">
	.st0{fill:#FFFFFF;}
	.st1{fill:#20385D;}
	.st2{fill:#39475e;}
</style>
<g>
	<path class="st2" d="M548.46,582.42c-0.17-3.37-1.4-4.16-4.46-4.1c-7.41,0.15-14.85-0.39-22.2,0.19c-6.19,0.49-7.79-1.3-7.77-7.63
		c0.2-138.44,0.1-276.88,0.32-415.31c0.01-6.45-1.79-7.65-7.83-7.62c-50.81,0.25-101.62,0.08-152.42,0.25
		c-4.8,0.02-6.19-1.17-6.16-6.09c0.24-31.47-0.03-62.94,0.26-94.41c0.05-5.56-1.53-6.75-6.88-6.74
		c-94.41,0.17-188.83,0.18-283.25-0.02c-5.82-0.01-7.06,1.68-7.04,7.21c0.17,87.22,0.12,174.44,0.12,261.65v260.42
		c0,1.45-0.12,2.89,0.02,4.32c0.29,2.94-0.89,3.98-3.88,3.89c-6.57-0.18-13.16-0.05-19.74-0.05c-10.59,0-10.23,0.02-10.72,10.78
		c-0.27,6.19,1.17,8.18,7.87,8.17c169.91-0.21,339.82-0.17,509.73-0.17C549.33,597.16,549.21,597.17,548.46,582.42z M276.28,578.45
		c-12.74-0.2-25.48-0.26-38.21,0.03c-4.41,0.1-5.45-1.34-5.42-5.54c0.2-23.02,0.09-46.03,0.09-69.05c0-22.81,0.15-45.61-0.13-68.42
		c-0.05-4.74,1.34-5.78,5.83-5.67c12.73,0.31,25.48,0.21,38.21,0.03c3.48-0.04,4.56,0.97,4.55,4.52
		c-0.11,46.44-0.12,92.88,0.01,139.32C281.22,577.53,279.97,578.51,276.28,578.45z M322.13,578.48c-5.1-0.45-10.32-0.57-15.4,0.02
		c-5.88,0.69-6.62-1.8-6.6-6.92c0.19-50.81,0.13-101.62,0.1-152.42c-0.01-9.02,1.19-8.1-8.32-8.12
		c-23.86-0.03-47.72,0.16-71.58-0.14c-5.34-0.06-6.92,1.18-6.9,6.75c0.23,51.22,0.07,102.44,0.25,153.66
		c0.02,5.29-0.85,7.28-6.85,7.24c-43.4-0.3-86.81-0.26-130.21-0.04c-5.09,0.03-6.44-1.24-6.43-6.39
		c0.17-84.54,0.13-169.09,0.13-253.63c0-83.92,0.06-167.85-0.14-251.77c-0.02-5.77,1.6-6.98,7.11-6.97
		c81.66,0.18,163.32,0.18,244.98-0.01c5.44-0.02,6.76,1.3,6.76,6.75c-0.16,168.47-0.16,336.94,0.01,505.4
		C329.05,577.56,327.38,578.94,322.13,578.48z M488.69,578.49c-44.85-0.2-89.69-0.19-134.53-0.02c-4.65,0.02-6.22-0.9-6.22-5.97
		c0.15-133.3,0.15-266.6,0.01-399.9c0-4.71,1.28-5.77,5.82-5.75c45.05,0.18,90.1,0.21,135.15-0.03c5.43-0.03,6.21,1.78,6.2,6.62
		c-0.16,66.45-0.11,132.89-0.11,199.34s-0.06,132.89,0.13,199.34C495.15,577.3,493.76,578.52,488.69,578.49z"/>
	<path class="st2" d="M100.39,161.7c-0.02,3.72,0.54,5.52,4.97,5.48c25.7-0.2,51.4-0.17,77.1-0.02c3.84,0.02,4.88-1.2,4.86-4.93
		c-0.14-25.29-0.17-50.58,0.02-75.87c0.03-4.17-1.3-5.21-5.29-5.14c-12.74,0.23-25.49,0.09-38.24,0.09
		c-12.75,0-25.5,0.16-38.24-0.09c-4.1-0.08-5.23,1.17-5.2,5.23C100.54,111.53,100.52,136.62,100.39,161.7z M124.06,100.22
		c6.78,0.24,13.56,0.07,20.35,0.07c6.37,0,12.75,0.15,19.12-0.06c3.25-0.1,4.73,0.5,4.67,4.28c-0.23,13.15-0.18,26.31-0.03,39.46
		c0.03,3.18-0.85,4.26-4.13,4.22c-13.35-0.16-26.72-0.19-40.08,0.01c-3.63,0.05-4.45-1.27-4.4-4.64
		c0.17-12.94,0.19-25.89-0.01-38.84C119.49,101.17,120.59,100.1,124.06,100.22z"/>
	<path class="st2" d="M216.64,167.19c12.54-0.27,25.08-0.09,37.63-0.09c12.95,0,25.91-0.15,38.85,0.09
		c3.99,0.07,5.34-0.97,5.31-5.13c-0.17-25.29-0.14-50.58-0.01-75.87c0.02-3.71-0.98-4.97-4.84-4.95c-25.7,0.15-51.4,0.18-77.1-0.02
		c-4.35-0.03-5.02,1.62-5,5.42c0.14,25.08,0.14,50.17,0,75.25C211.45,165.83,212.44,167.28,216.64,167.19z M230.67,104.19
		c-0.03-2.87,0.75-3.98,3.78-3.95c13.77,0.13,27.54,0.11,41.31,0.01c2.7-0.03,3.52,0.88,3.49,3.55c-0.11,13.56-0.14,27.13,0.02,40.7
		c0.03,3.18-1.29,3.72-4.03,3.67c-6.98-0.14-13.97-0.04-20.96-0.04c-6.58,0-13.15-0.11-19.73,0.05c-2.95,0.07-3.91-0.94-3.88-3.9
		C230.8,130.91,230.79,117.55,230.67,104.19z"/>
	<path class="st2" d="M100.38,271.76c-0.03,3.94,0.95,5.4,5.16,5.31c12.54-0.27,25.08-0.09,37.63-0.09
		c12.95,0,25.91-0.15,38.86,0.09c4,0.07,5.33-0.99,5.3-5.14c-0.17-25.28-0.15-50.58-0.01-75.87c0.02-3.72-0.99-4.97-4.85-4.94
		c-25.71,0.15-51.4,0.14-77.11,0.01c-3.64-0.02-5.02,0.85-4.99,4.78C100.54,221.18,100.53,246.47,100.38,271.76z M119.57,213.96
		c-0.03-2.98,0.97-3.87,3.88-3.84c13.77,0.11,27.53,0.11,41.3,0c2.81-0.03,3.43,1.07,3.41,3.62c-0.1,13.36-0.14,26.72,0.02,40.08
		c0.03,3.18-0.87,4.36-4.15,4.27c-6.78-0.2-13.56-0.07-20.34-0.07c-6.58,0-13.15-0.09-19.73,0.05c-2.98,0.06-4.45-0.56-4.4-4.03
		C119.74,240.68,119.7,227.32,119.57,213.96z"/>
	<path class="st2" d="M211.49,271.68c-0.03,3.84,0.77,5.43,5.07,5.39c25.7-0.2,51.4-0.18,77.1-0.02c3.98,0.03,4.77-1.45,4.75-5.04
		c-0.13-25.29-0.16-50.59,0.03-75.88c0.03-4.3-1.56-5.09-5.4-5.03c-12.53,0.2-25.08,0.08-37.62,0.08c-12.76,0-25.5,0.14-38.25-0.08
		c-4.04-0.07-5.77,0.71-5.72,5.31C211.68,221.51,211.62,246.59,211.49,271.68z M235.16,210.09c6.78,0.24,13.56,0.08,20.35,0.08
		c6.37-0.01,12.75,0.14,19.11-0.07c3.23-0.1,4.74,0.48,4.68,4.27c-0.23,13.15-0.18,26.3-0.03,39.45c0.04,3.2-0.88,4.3-4.15,4.27
		c-13.36-0.15-26.72-0.18-40.08,0.01c-3.66,0.05-4.43-1.34-4.39-4.68c0.16-12.95,0.2-25.89-0.01-38.84
		C230.59,211.03,231.69,209.97,235.16,210.09z"/>
	<path class="st2" d="M143.8,386.85c12.75,0,25.5-0.15,38.24,0.09c4.02,0.08,5.31-1.03,5.29-5.16c-0.17-25.29-0.15-50.58-0.01-75.87
		c0.02-3.73-1.02-4.97-4.86-4.94c-25.7,0.15-51.4,0.14-77.1,0.01c-3.66-0.02-5.01,0.89-4.98,4.8c0.16,25.29,0.15,50.58,0.01,75.87
		c-0.03,3.95,0.98,5.38,5.18,5.3C118.3,386.68,131.05,386.85,143.8,386.85z M119.55,324.54c-0.04-3.42,0.82-4.72,4.43-4.57
		c6.77,0.26,13.55,0.08,20.34,0.08c6.57,0,13.15,0.16,19.73-0.08c3.27-0.11,4.18,0.96,4.13,4.18c-0.17,13.15-0.2,26.31,0.01,39.46
		c0.07,3.76-1.45,4.38-4.69,4.35c-13.15-0.14-26.31-0.16-39.46,0.02c-3.55,0.05-4.53-1.12-4.49-4.58
		C119.74,350.43,119.74,337.48,119.55,324.54z"/>
	<path class="st2" d="M298.43,306.29c0.03-3.93-0.88-5.37-5.1-5.34c-25.49,0.19-50.99,0.17-76.49,0.02
		c-3.84-0.02-5.41,0.75-5.37,5.04c0.2,25.29,0.19,50.58,0,75.87c-0.03,4.29,1.59,5.1,5.43,5.04c12.53-0.2,25.08-0.08,37.63-0.08
		c12.75,0,25.49-0.14,38.24,0.09c4.12,0.07,5.73-0.85,5.69-5.38C298.23,356.46,298.27,331.38,298.43,306.29z M279.26,364.07
		c0.03,2.98-1,3.89-3.9,3.87c-13.56-0.11-27.13-0.15-40.69,0.03c-3.51,0.04-4.02-1.45-4-4.44c0.12-13.15,0.16-26.31-0.02-39.46
		c-0.05-3.37,1.17-4.18,4.27-4.09c6.78,0.18,13.56,0.06,20.35,0.06c6.57,0,13.15,0.13,19.73-0.06c3.05-0.09,4.33,0.6,4.29,4.02
		C279.09,337.36,279.13,350.72,279.26,364.07z"/>
	<path class="st2" d="M183.99,410.85c-12.73,0.21-25.47,0.08-38.21,0.08c-12.74,0-25.47,0.14-38.21-0.08
		c-4.02-0.07-5.25,1.15-5.22,5.24c0.19,25.26,0.16,50.54,0.02,75.8c-0.02,3.74,1.05,4.93,4.87,4.91c25.67-0.14,51.34-0.14,77.02,0
		c3.76,0.02,4.93-1.11,4.91-4.89c-0.14-25.26-0.16-50.54,0.02-75.8C189.23,412.04,188.04,410.78,183.99,410.85z M165.35,477.86
		c-13.13-0.22-26.26-0.14-39.39-0.03c-2.98,0.03-4.46-0.56-4.41-4.02c0.17-13.33,0.14-26.67,0.02-40c-0.02-2.81,0.62-3.99,3.72-3.95
		c13.54,0.15,27.08,0.15,40.62,0c3.27-0.03,4.25,1.1,4.16,4.26c-0.2,6.56-0.06,13.13-0.06,19.69c0,6.36-0.19,12.73,0.07,19.07
		C170.22,476.51,169.28,477.93,165.35,477.86z"/>
	<path class="st2" d="M382.81,277.03c12.75-0.16,25.49-0.06,38.24-0.06c12.95,0,25.91-0.17,38.86,0.09
		c4.18,0.09,5.18-1.33,5.15-5.29c-0.15-25.29-0.12-50.58-0.03-75.87c0.01-3.24-0.58-4.82-4.35-4.8
		c-26.11,0.14-52.23,0.12-78.34,0.01c-3.27-0.01-4.22,1.12-4.21,4.29c0.1,25.7,0.11,51.4-0.01,77.1
		C378.12,276.1,379.4,277.08,382.81,277.03z M401.65,210.12c6.79,0.15,13.56,0.05,20.35,0.05c6.78,0,13.56,0.09,20.34-0.05
		c2.62-0.05,3.58,0.74,3.56,3.48c-0.12,13.56-0.14,27.13,0,40.69c0.03,3.09-1.18,3.8-3.99,3.78c-13.56-0.1-27.13-0.1-40.68,0
		c-2.9,0.02-3.95-0.89-3.92-3.89c0.14-13.35,0.17-26.71-0.02-40.07C397.24,210.65,398.66,210.05,401.65,210.12z"/>
	<path class="st2" d="M421.59,386.85c12.75,0,25.49-0.15,38.24,0.09c4.08,0.09,5.27-1.13,5.25-5.2c-0.17-25.3-0.15-50.59-0.01-75.88
		c0.02-3.78-1.12-4.91-4.91-4.9c-25.7,0.15-51.4,0.14-77.11,0.01c-3.72-0.03-4.96,0.99-4.93,4.85c0.16,25.29,0.15,50.58,0.01,75.87
		c-0.03,4.01,1.08,5.33,5.21,5.25C396.09,386.68,408.83,386.85,421.59,386.85z M397.3,324.53c-0.04-3.43,0.84-4.7,4.43-4.57
		c6.77,0.26,13.56,0.08,20.34,0.08c6.58,0,13.16,0.16,19.73-0.08c3.29-0.12,4.17,0.99,4.12,4.19c-0.17,13.15-0.21,26.31,0.02,39.46
		c0.06,3.78-1.47,4.37-4.71,4.34c-13.15-0.13-26.3-0.16-39.46,0.02c-3.55,0.05-4.52-1.15-4.47-4.6
		C397.47,350.43,397.48,337.47,397.3,324.53z"/>
	<path class="st2" d="M461.71,410.85c-12.73,0.21-25.47,0.08-38.2,0.08c-12.74,0-25.48,0.14-38.21-0.08
		c-4.06-0.07-5.22,1.21-5.2,5.26c0.18,25.26,0.16,50.53,0.02,75.79c-0.03,3.78,1.1,4.91,4.88,4.89c25.68-0.14,51.35-0.14,77.02,0
		c3.79,0.02,4.92-1.16,4.9-4.91c-0.14-25.26-0.17-50.53,0.02-75.79C466.97,411.98,465.72,410.78,461.71,410.85z M447.81,473.55
		c0.03,3.16-0.9,4.32-4.17,4.28c-13.33-0.14-26.68-0.18-40,0.03c-3.74,0.05-4.38-1.46-4.35-4.73c0.14-12.93,0.17-25.85-0.01-38.78
		c-0.05-3.42,0.86-4.66,4.42-4.52c6.76,0.26,13.54,0.08,20.31,0.08c6.36,0,12.72,0.13,19.07-0.06c3.24-0.09,4.8,0.54,4.74,4.32
		C447.62,447.3,447.67,460.43,447.81,473.55z"/>
</g>
</svg>
